Coordinates
version=1
nRows=7
nColumns=40
inDegrees=yes

Units are S.I. units (second, meters, Newtons, ...)
If the header above contains a line with 'inDegrees', this indicates whether rotational values are in degrees (yes) or radians (no).

endheader
time	pelvis_tilt	pelvis_list	pelvis_rotation	pelvis_tx	pelvis_ty	pelvis_tz	hip_flexion_r	hip_adduction_r	hip_rotation_r	knee_angle_r	knee_angle_r_beta	ankle_angle_r	subtalar_angle_r	mtp_angle_r	hip_flexion_l	hip_adduction_l	hip_rotation_l	knee_angle_l	knee_angle_l_beta	ankle_angle_l	subtalar_angle_l	mtp_angle_l	lumbar_extension	lumbar_bending	lumbar_rotation	arm_flex_r	arm_add_r	arm_rot_r	elbow_flex_r	pro_sup_r	wrist_flex_r	wrist_dev_r	arm_flex_l	arm_add_l	arm_rot_l	elbow_flex_l	pro_sup_l	wrist_flex_l	wrist_dev_l
      5.36500000	    -33.38039929	     -3.19186701	     -2.26132841	     -0.45454752	      0.68177733	     -0.92196424	     87.74798327	     -9.98409812	      1.83374098	     92.62034483	      1.61652997	     36.63936532	      0.00000000	      0.00000000	     92.32085764	    -19.90415862	      8.96600824	     92.01983559	      1.60604911	     33.39921026	      0.00000000	      0.00000000	    -19.51976633	      1.79617238	      5.33844928	     14.82843507	    -55.25769471	     80.48677299	     93.62827714	     86.43871519	      0.00000000	      0.00000000	    -18.30249297	    -48.10117953	     36.09916447	     99.40364824	     87.55965864	      0.00000000	      0.00000000
      5.37000000	    -33.35527306	     -3.14314302	     -2.28284465	     -0.45436255	      0.68173076	     -0.92200774	     87.73172136	     -9.98502804	      1.88043148	     92.65172414	      1.61707764	     36.63381664	      0.00000000	      0.00000000	     92.26072141	    -19.93125188	      8.89264808	     92.05151543	      1.60660203	     33.46479614	      0.00000000	      0.00000000	    -19.54681520	      1.73830573	      5.53227725	     14.31624348	    -55.31104153	     79.92044765	     93.60028562	     86.41891996	      0.00000000	      0.00000000	    -17.90163442	    -48.17559223	     36.50605334	     99.33788290	     87.59450729	      0.00000000	      0.00000000
      5.37500000	    -33.35649602	     -3.12293522	     -2.27606538	     -0.45431935	      0.68161391	     -0.92205433	     87.75554042	    -10.00733916	      1.89241180	     92.67102393	      1.61741449	     36.62241905	      0.00000000	      0.00000000	     92.25560929	    -19.91544174	      8.86709271	     92.06247162	      1.60679325	     33.46926363	      0.00000000	      0.00000000	    -19.55358352	      1.73445323	      5.35827384	     14.84553543	    -55.24982900	     80.49956662	     93.59613483	     86.45777505	      0.00000000	      0.00000000	    -18.21431101	    -48.11141445	     36.19655223	     99.36363421	     87.56295693	      0.00000000	      0.00000000
      5.38000000	    -33.36877303	     -3.13956782	     -2.26898956	     -0.45422120	      0.68147638	     -0.92208723	     87.77969519	    -10.02055126	      1.87359700	     92.72103417	      1.61828733	     36.56742072	      0.00000000	      0.00000000	     92.28544886	    -19.88771919	      8.92603091	     92.09112560	      1.60729335	     33.46186994	      0.00000000	      0.00000000	    -19.53464765	      1.75201833	      6.06890915	     12.89886244	    -55.53622098	     78.47807470	     93.77836019	     85.66303564	      0.00000000	      0.00000000	    -16.59153282	    -48.47935501	     37.97781159	     99.21460726	     87.79296089	      0.00000000	      0.00000000
      5.38500000	    -33.40179168	     -3.15241363	     -2.28518626	     -0.45427545	      0.68126166	     -0.92198563	     87.81159998	     -9.98602411	      1.87942075	     92.71603520	      1.61820008	     36.67278793	      0.00000000	      0.00000000	     92.35496684	    -19.90065074	      8.96189272	     92.11793445	      1.60776126	     33.46085815	      0.00000000	      0.00000000	    -19.52800315	      1.76831298	      5.52297134	     14.42619681	    -55.34161098	     80.03507813	     93.67619124	     86.49712864	      0.00000000	      0.00000000	    -17.91269842	    -48.20549097	     36.55409542	     99.36085009	     87.58319531	      0.00000000	      0.00000000
      5.39000000	    -33.43728752	     -3.16220870	     -2.31477302	     -0.45427260	      0.68108657	     -0.92186522	     87.85701586	     -9.95628456	      1.85186340	     92.73859060	      1.61859375	     36.65690803	      0.00000000	      0.00000000	     92.40982342	    -19.93706813	      8.98596713	     92.14641182	      1.60825828	     33.49846443	      0.00000000	      0.00000000	    -19.50246212	      1.77411838	      5.41995330	     14.81757948	    -55.30349894	     80.46624182	     93.66542475	     86.51260867	      0.00000000	      0.00000000	    -18.22494854	    -48.14066493	     36.19551238	     99.39136479	     87.55654516	      0.00000000	      0.00000000
      5.39500000	    -33.39006157	     -3.18531639	     -2.27705111	     -0.45414695	      0.68106966	     -0.92195020	     87.80412307	     -9.99935365	      1.82853501	     92.77396306	      1.61921112	     36.73714561	      0.00000000	      0.00000000	     92.36529270	    -19.88608938	      9.03107084	     92.16083637	      1.60851004	     33.54508298	      0.00000000	      0.00000000	    -19.57456710	      1.80307630	      5.54659354	     14.33598122	    -55.36692390	     79.92590578	     93.68402660	     86.36845260	      0.00000000	      0.00000000	    -17.85556481	    -48.24308160	     36.61411928	     99.40369483	     87.61714309	      0.00000000	      0.00000000
